<svg width="30" height="37" viewBox="0 0 30 37" fill="none" xmlns="http://www.w3.org/2000/svg">
<path d="M15 0.5C22.9761 0.5 29.5 7.02386 29.5 15C29.5 21.4522 26.6329 26.8137 23.4297 30.5508C21.8273 32.4202 20.1318 33.8932 18.6504 34.9033C17.9101 35.4081 17.2165 35.802 16.6084 36.0713C16.0122 36.3353 15.4543 36.5 15 36.5C14.5457 36.5 13.9878 36.3353 13.3916 36.0713C12.7835 35.802 12.0899 35.4081 11.3496 34.9033C9.86819 33.8932 8.17274 32.4202 6.57031 30.5508C3.36708 26.8137 0.5 21.4522 0.5 15C0.5 7.02386 7.02386 0.5 15 0.5ZM15 9.90039C12.1961 9.90039 9.90039 12.1961 9.90039 15C9.90039 17.8039 12.1961 20.0996 15 20.0996C17.8039 20.0996 20.0996 17.8039 20.0996 15C20.0996 12.1961 17.8039 9.90039 15 9.90039Z" fill="#642226" stroke="white"/>
</svg>
